<svg width="29" height="24" viewBox="0 0 29 24" fill="none" xmlns="http://www.w3.org/2000/svg">
<path d="M0.330227 12.764C1.59023 12.476 2.22023 11.774 2.22023 10.658C2.22023 10.106 2.15423 9.338 2.02223 8.354C2.01023 8.246 1.97423 7.916 1.91423 7.364C1.85423 6.8 1.82423 6.284 1.82423 5.816C1.82423 4.952 2.05823 4.304 2.52623 3.872C2.99423 3.428 3.63023 3.206 4.43423 3.206H5.33423V4.304H4.65023C4.12223 4.304 3.72023 4.43 3.44423 4.682C3.18023 4.934 3.04823 5.342 3.04823 5.906C3.04823 6.326 3.07823 6.806 3.13823 7.346C3.19823 7.874 3.23423 8.198 3.24623 8.318C3.37823 9.326 3.44423 10.118 3.44423 10.694C3.44423 11.354 3.27623 11.912 2.94023 12.368C2.61623 12.812 2.11223 13.112 1.42823 13.268V13.304C2.11223 13.46 2.61623 13.766 2.94023 14.222C3.27623 14.666 3.44423 15.218 3.44423 15.878C3.44423 16.442 3.37823 17.228 3.24623 18.236C3.23423 18.368 3.19823 18.704 3.13823 19.244C3.07823 19.772 3.04823 20.246 3.04823 20.666C3.04823 21.23 3.18023 21.638 3.44423 21.89C3.72023 22.142 4.12223 22.268 4.65023 22.268H5.33423V23.366H4.43423C3.63023 23.366 2.99423 23.144 2.52623 22.7C2.05823 22.268 1.82423 21.62 1.82423 20.756C1.82423 20.288 1.85423 19.778 1.91423 19.226C1.97423 18.662 2.01023 18.32 2.02223 18.2C2.15423 17.204 2.22023 16.442 2.22023 15.914C2.22023 14.798 1.59023 14.09 0.330227 13.79V12.764Z" fill="white"/>
<path d="M8.682 21.063C8.268 21.063 7.896 20.991 7.566 20.847C7.242 20.697 6.987 20.493 6.801 20.235C6.615 19.971 6.519 19.668 6.513 19.326H7.386C7.416 19.62 7.536 19.869 7.746 20.073C7.962 20.271 8.274 20.37 8.682 20.37C9.072 20.37 9.378 20.274 9.6 20.082C9.828 19.884 9.942 19.632 9.942 19.326C9.942 19.086 9.876 18.891 9.744 18.741C9.612 18.591 9.447 18.477 9.249 18.399C9.051 18.321 8.784 18.237 8.448 18.147C8.034 18.039 7.701 17.931 7.449 17.823C7.203 17.715 6.99 17.547 6.81 17.319C6.636 17.085 6.549 16.773 6.549 16.383C6.549 16.041 6.636 15.738 6.81 15.474C6.984 15.21 7.227 15.006 7.539 14.862C7.857 14.718 8.22 14.646 8.628 14.646C9.216 14.646 9.696 14.793 10.068 15.087C10.446 15.381 10.659 15.771 10.707 16.257H9.807C9.777 16.017 9.651 15.807 9.429 15.627C9.207 15.441 8.913 15.348 8.547 15.348C8.205 15.348 7.926 15.438 7.71 15.618C7.494 15.792 7.386 16.038 7.386 16.356C7.386 16.584 7.449 16.77 7.575 16.914C7.707 17.058 7.866 17.169 8.052 17.247C8.244 17.319 8.511 17.403 8.853 17.499C9.267 17.613 9.6 17.727 9.852 17.841C10.104 17.949 10.32 18.12 10.5 18.354C10.68 18.582 10.77 18.894 10.77 19.29C10.77 19.596 10.689 19.884 10.527 20.154C10.365 20.424 10.125 20.643 9.807 20.811C9.489 20.979 9.114 21.063 8.682 21.063ZM12.3982 15.267C12.2422 15.267 12.1102 15.213 12.0022 15.105C11.8942 14.997 11.8402 14.865 11.8402 14.709C11.8402 14.553 11.8942 14.421 12.0022 14.313C12.1102 14.205 12.2422 14.151 12.3982 14.151C12.5482 14.151 12.6742 14.205 12.7762 14.313C12.8842 14.421 12.9382 14.553 12.9382 14.709C12.9382 14.865 12.8842 14.997 12.7762 15.105C12.6742 15.213 12.5482 15.267 12.3982 15.267ZM12.7942 16.068V21H11.9752V16.068H12.7942ZM15.0091 14.34V21H14.1901V14.34H15.0091ZM18.2409 20.244L19.7709 16.068H20.6439L18.7089 21H17.7549L15.8199 16.068H16.7019L18.2409 20.244ZM21.1438 18.516C21.1438 18.012 21.2458 17.571 21.4498 17.193C21.6538 16.809 21.9328 16.512 22.2868 16.302C22.6468 16.092 23.0458 15.987 23.4838 15.987C23.9158 15.987 24.2908 16.08 24.6088 16.266C24.9268 16.452 25.1638 16.686 25.3198 16.968V16.068H26.1478V21H25.3198V20.082C25.1578 20.37 24.9148 20.61 24.5908 20.802C24.2728 20.988 23.9008 21.081 23.4748 21.081C23.0368 21.081 22.6408 20.973 22.2868 20.757C21.9328 20.541 21.6538 20.238 21.4498 19.848C21.2458 19.458 21.1438 19.014 21.1438 18.516ZM25.3198 18.525C25.3198 18.153 25.2448 17.829 25.0948 17.553C24.9448 17.277 24.7408 17.067 24.4828 16.923C24.2308 16.773 23.9518 16.698 23.6458 16.698C23.3398 16.698 23.0608 16.77 22.8088 16.914C22.5568 17.058 22.3558 17.268 22.2058 17.544C22.0558 17.82 21.9808 18.144 21.9808 18.516C21.9808 18.894 22.0558 19.224 22.2058 19.506C22.3558 19.782 22.5568 19.995 22.8088 20.145C23.0608 20.289 23.3398 20.361 23.6458 20.361C23.9518 20.361 24.2308 20.289 24.4828 20.145C24.7408 19.995 24.9448 19.782 25.0948 19.506C25.2448 19.224 25.3198 18.897 25.3198 18.525Z" fill="white"/>
<path d="M12.66 7.144C12.468 6.792 12.204 6.524 11.868 6.34C11.532 6.156 11.14 6.064 10.692 6.064C10.196 6.064 9.756 6.176 9.372 6.4C8.988 6.624 8.688 6.944 8.472 7.36C8.256 7.776 8.148 8.256 8.148 8.8C8.148 9.36 8.256 9.848 8.472 10.264C8.696 10.68 9.004 11 9.396 11.224C9.788 11.448 10.244 11.56 10.764 11.56C11.404 11.56 11.928 11.392 12.336 11.056C12.744 10.712 13.012 10.236 13.14 9.628H10.26V8.344H14.796V9.808C14.684 10.392 14.444 10.932 14.076 11.428C13.708 11.924 13.232 12.324 12.648 12.628C12.072 12.924 11.424 13.072 10.704 13.072C9.896 13.072 9.164 12.892 8.508 12.532C7.86 12.164 7.348 11.656 6.972 11.008C6.604 10.36 6.42 9.624 6.42 8.8C6.42 7.976 6.604 7.24 6.972 6.592C7.348 5.936 7.86 5.428 8.508 5.068C9.164 4.7 9.892 4.516 10.692 4.516C11.636 4.516 12.456 4.748 13.152 5.212C13.848 5.668 14.328 6.312 14.592 7.144H12.66ZM22.3149 6.352V13H20.6229V12.16C20.4069 12.448 20.1229 12.676 19.7709 12.844C19.4269 13.004 19.0509 13.084 18.6429 13.084C18.1229 13.084 17.6629 12.976 17.2629 12.76C16.8629 12.536 16.5469 12.212 16.3149 11.788C16.0909 11.356 15.9789 10.844 15.9789 10.252V6.352H17.6589V10.012C17.6589 10.54 17.7909 10.948 18.0549 11.236C18.3189 11.516 18.6789 11.656 19.1349 11.656C19.5989 11.656 19.9629 11.516 20.2269 11.236C20.4909 10.948 20.6229 10.54 20.6229 10.012V6.352H22.3149ZM24.8245 5.56C24.5285 5.56 24.2805 5.468 24.0805 5.284C23.8885 5.092 23.7925 4.856 23.7925 4.576C23.7925 4.296 23.8885 4.064 24.0805 3.88C24.2805 3.688 24.5285 3.592 24.8245 3.592C25.1205 3.592 25.3645 3.688 25.5565 3.88C25.7565 4.064 25.8565 4.296 25.8565 4.576C25.8565 4.856 25.7565 5.092 25.5565 5.284C25.3645 5.468 25.1205 5.56 24.8245 5.56ZM25.6525 6.352V13H23.9725V6.352H25.6525Z" fill="white"/>
</svg>
